<?xml version="1.0" encoding="UTF-8"?>
<svg id="Layer_2" data-name="Layer 2" xmlns="http://www.w3.org/2000/svg" viewBox="0 0 155.5 66.5">
  <defs>
    <style>
      .cls-1 {
        fill: #fff;
      }

      .cls-2 {
        fill: #2b3991;
      }
    </style>
  </defs>
  <g id="Layer_3" data-name="Layer 3">
    <rect class="cls-1" width="155.5" height="66.5"/>
    <g>
      <rect class="cls-2" x=".37" y="36.59" width="154.76" height="29.48"/>
      <path class="cls-2" d="M25.74,20.5c-.53,6.16-1.92,10.68-4.78,16.13l-15.46-.04c-2.36-6.09-3.82-10.16-4.04-16.52C1.18,11.83,1.77,3.56,13.06,3.56c12.51,0,13.39,8.57,12.67,16.94ZM13.62,7.17c-5.98,0-7.55,3.41-7.55,10.11,0,7.98,3.6,14.87,7.75,14.87,3.71,0,7.42-7.12,7.42-15.79,0-5.58-1.52-9.19-7.62-9.19Z"/>
      <path class="cls-2" d="M32.83,23.17h-4.71s0-2.56,0-2.56h13.38v2.62h-4.96v13.36h-3.75s-.04-13.42.04-13.42Z"/>
      <path class="cls-1" d="M143.27,48.35h-4.9s0-2.91,0-2.91h13.62v2.96h-5.01v14.44h-3.76s-.02-14.5.05-14.5Z"/>
      <polygon class="cls-2" points="43.75 36.59 43.75 20.69 48.61 20.69 53.89 32.64 58.88 20.69 63.97 20.69 63.94 36.59 60.73 36.59 60.76 23.97 55.98 36.59 51.62 36.59 47.03 24.13 47.03 36.59 43.75 36.59"/>
      <path class="cls-2" d="M66.94,36.59l5.49-15.9h4.19l5.86,15.9h-3.91s-.85-2.87-.85-2.87h-6.71l-1.01,2.87h-3.05ZM71.75,30.92h5.32l-2.66-6.66-2.66,6.66Z"/>
      <path class="cls-1" d="M40.42,62.85l5.76-17.38h4.19l6.94,17.38h-4.04l-1.81-3.9h-6.71l-1.28,3.9h-3.05ZM45.9,55.8h4.62l-2.35-6.65-2.27,6.65Z"/>
      <polygon class="cls-2" points="85.39 36.59 85.39 20.69 89.88 20.69 96.64 33.22 96.64 20.69 99.61 20.69 99.61 36.35 99.61 36.59 94.79 36.59 88.14 24.26 88.13 36.59 85.39 36.59"/>
      <polygon class="cls-1" points="59.03 62.85 59.03 45.47 63.78 45.47 70.3 57.71 70.3 45.47 73.6 45.38 73.6 62.51 73.6 62.85 69.1 62.85 62.03 49.9 62.03 62.85 59.03 62.85"/>
      <polygon class="cls-1" points="3.61 36.59 3.61 41.3 11.04 41.3 11.04 62.85 16.46 62.85 16.46 41.35 23.68 41.35 23.68 36.59 3.61 36.59"/>
      <path class="cls-1" d="M34.18,45.32c4.07.02,6.38,6.52,1.01,9.34l4.15,8.19h-3.35l-3.69-7.36h-2.76v7.36h-3.59v-17.53h8.24ZM32.47,52.78c2.32,0,2.32-4.32,0-4.32h-2.99v4.32h2.99Z"/>
      <path class="cls-1" d="M132.54,45.32c4.07.02,6.38,6.52,1.01,9.34l4.15,8.19h-3.35l-3.69-7.36h-2.76v7.36h-3.59v-17.53h8.24ZM130.83,52.78c2.32,0,2.32-4.32,0-4.32h-2.99v4.32h2.99Z"/>
      <path class="cls-1" d="M96.89,45.32c8.34,0,7.81,11.31-.12,11.31h-2.76s-.05,6.22-.05,6.22h-3.32l.05-17.53h6.2ZM96.95,53.7c2.86,0,2.92-5.24,0-5.24h-2.99v5.24h2.99Z"/>
      <path class="cls-1" d="M77.41,58.11l-1.85,2.31s2.08,2.43,5.36,2.43c3.79,0,7.08-1.89,7.08-4.75,0-6.82-7.61-4.67-7.61-8.61,0-3.23,5.2-1.01,6.25-.2l.76-2.54c-3.19-2.65-11.15-2.05-11.15,2.81,0,6.69,7.94,3.95,7.94,8.03,0,1.43-1.83,2.11-1.83,2.11,0,0-2.23.7-4.95-1.61Z"/>
      <path class="cls-1" d="M113.35,48.11c3.01,0,5.49,2.3,5.49,5.75,0,3.12-2.04,5.4-5.49,5.4s-5.22-3.04-5.22-5.57c0-2.72,1.82-5.58,5.22-5.58ZM104.57,53.94c0,4.04,3.15,8.9,8.84,8.9s9.01-3.65,9.01-8.63c0-5.5-4.22-9.52-9.01-9.52-5.41,0-8.84,4.9-8.84,9.24Z"/>
    </g>
  </g>
</svg>