<?xml version="1.0" encoding="UTF-8" standalone="no"?>
<!-- Created with Inkscape (http://www.inkscape.org/) -->

<svg
   width="118.55627mm"
   height="44.184994mm"
   viewBox="0 0 118.55627 44.184994"
   version="1.1"
   id="svg1"
   inkscape:version="1.4.2 (f4327f4, 2025-05-13)"
   sodipodi:docname="Otman Logo Horizontal Blue.svg"
   xmlns:inkscape="http://www.inkscape.org/namespaces/inkscape"
   xmlns:sodipodi="http://sodipodi.sourceforge.net/DTD/sodipodi-0.dtd"
   xmlns="http://www.w3.org/2000/svg"
   xmlns:svg="http://www.w3.org/2000/svg">
  <sodipodi:namedview
     id="namedview1"
     pagecolor="#ffffff"
     bordercolor="#000000"
     borderopacity="0.25"
     inkscape:showpageshadow="2"
     inkscape:pageopacity="0.0"
     inkscape:pagecheckerboard="0"
     inkscape:deskcolor="#d1d1d1"
     inkscape:document-units="mm"
     inkscape:zoom="1.9477379"
     inkscape:cx="235.9147"
     inkscape:cy="100.88626"
     inkscape:window-width="1920"
     inkscape:window-height="991"
     inkscape:window-x="-9"
     inkscape:window-y="-9"
     inkscape:window-maximized="1"
     inkscape:current-layer="layer1" />
  <defs
     id="defs1" />
  <g
     inkscape:label="Layer 1"
     inkscape:groupmode="layer"
     id="layer1"
     transform="translate(0,-35.347995)">
    <g
       id="g55-7-1-8-5-2"
       transform="matrix(0.19916625,0,0,0.19916625,799.82036,287.8893)"
       style="fill:#343d9e;fill-opacity:1">
      <g
         id="g54-2-2-0-2-4"
         transform="matrix(0.74168075,0,0,0.74168075,-931.47128,-280.52515)"
         style="fill:#343d9e;fill-opacity:1">
        <path
           id="path5-5-4-7-3-8-3-5-97-8-6-6-3-2-5-7-2-5"
           style="fill:#343d9e;fill-opacity:1;stroke-width:40.3202;stroke-linecap:round;stroke-miterlimit:3.8"
           d="m -4019.43,-1194.9483 7.2957,13.1468 h 27.6039 l 0.4258,50.2055 8.4449,15.1268 c 0,0 4.9975,-9.0085 8.3032,-15.1655 l 0.1942,-50.165 27.2351,-0.01 7.3817,-13.5423 -43.2793,0.1984 c -2.1883,0 -40.3692,0.2029 -43.6045,0.2029 z"
           sodipodi:nodetypes="cccccccccccc" />
        <g
           id="g6-6-8-9-7-9-0-9-4-37-2-3-01-8-9-0-2-9-5"
           transform="matrix(2.8856719,0,0,2.8856719,-4983.7536,-1659.3259)"
           style="fill:#343d9e;fill-opacity:1">
          <path
             id="path1-1-6-6-7-8-8-1-9-2-6-65-6-3-4-8-2-0-1"
             style="baseline-shift:baseline;display:inline;overflow:visible;vector-effect:none;fill:#343d9e;fill-opacity:1;stroke-width:0.506148;stroke-linecap:round;stroke-linejoin:round;enable-background:accumulate;stop-color:#000000"
             d="m 349.27879,142.81947 c -11.45302,0 -20.84292,9.11517 -20.84292,20.37085 0,9.35737 6.4341,17.30846 15.2038,19.6996 -0.004,-0.21601 -0.003,-0.53702 -0.003,-0.74495 3e-4,-0.1377 0.002,-0.35344 -1.3e-4,-0.48088 -0.003,-0.89706 10e-4,-1.74905 0,-2.56223 -0.001,-0.33724 0.003,-0.67429 0.004,-1.04516 -3.44037,-1.28845 -4.29599,-2.41369 -7.67568,-5.76421 -1.86503,-2.57361 -2.95647,-5.71366 -2.95648,-9.10217 0,-8.71961 7.22603,-15.79774 16.27054,-15.79774 9.04451,0 16.27055,7.07813 16.27055,15.79774 0,6.84794 -4.43319,12.67873 -10.72761,14.8683 0.003,0.28593 0.004,0.58413 -8.5e-4,0.87758 -10e-4,0.53973 0.007,1.05778 0.002,1.59938 0.004,0.54032 0.005,1.11116 -3.9e-4,1.63337 -0.004,0.24327 0.01,0.48109 -10e-4,0.71973 8.90972,-2.29939 15.30218,-10.24281 15.30218,-19.69836 0,-11.25569 -9.39138,-20.37085 -20.84439,-20.37085 z"
             sodipodi:nodetypes="cscsccccssscccccscc" />
        </g>
      </g>
      <g
         id="g16-8-4-24-6-0-8-6-9-5-6-6-2-57-7-1-3-5-5-7"
         transform="matrix(3.2958141,0,0,3.2958141,-4164.9077,-1550.887)"
         style="fill:#343d9e;fill-opacity:1;stroke-width:0.999667;stroke-dasharray:none">
        <path
           style="font-weight:600;font-size:25.1228px;line-height:3;font-family:Outfit;-inkscape-font-specification:'Outfit Semi-Bold';fill:#343d9e;fill-opacity:1;stroke-width:0.999667;stroke-linecap:round;stroke-linejoin:round;stroke-dasharray:none"
           d="m 183.57256,128.32144 h 3.4167 v -11.38063 l 8.79299,11.38063 h 2.46203 v -17.66133 h -3.44182 v 11.456 l -8.84323,-11.456 h -2.38667 z"
           id="path16-1-8-5-3-1-7-8-5-0-5-0-8-5-1-9-9-9-1-1" />
        <path
           id="path15-8-6-5-6-2-7-1-3-8-7-3-1-4-0-6-3-1-8-1"
           style="font-weight:600;font-size:25.1228px;line-height:3;font-family:Outfit;-inkscape-font-specification:'Outfit Semi-Bold';fill:#343d9e;fill-opacity:1;stroke-width:0.999667;stroke-linecap:round;stroke-linejoin:round;stroke-dasharray:none"
           d="m 170.43332,122.16636 2.56253,-6.68267 2.51228,6.68267 z m -5.92898,6.15508 h 3.56744 l 1.25614,-3.29109 h 7.26049 l 1.25614,3.29109 h 3.6428 l -7.08463,-17.66133 h -2.78863 z" />
        <path
           style="font-weight:600;font-size:25.1228px;line-height:3;font-family:Outfit;-inkscape-font-specification:'Outfit Semi-Bold';fill:#343d9e;fill-opacity:1;stroke-width:0.999667;stroke-linecap:round;stroke-linejoin:round;stroke-dasharray:none"
           d="m 143.92717,128.32144 h 3.4167 v -10.55157 l 4.296,6.93389 h 2.3113 l 4.32112,-6.90877 v 10.52645 h 3.39158 v -17.66133 h -2.41179 l -6.45656,10.3506 -6.45656,-10.3506 h -2.41179 z"
           id="path13-2-5-17-1-5-8-9-2-3-5-8-0-1-7-9-9-0-3-5" />
        <path
           style="font-weight:600;font-size:25.1228px;line-height:3;font-family:Outfit;-inkscape-font-specification:'Outfit Semi-Bold';fill:#343d9e;fill-opacity:1;stroke-width:0.999667;stroke-linecap:round;stroke-linejoin:round;stroke-dasharray:none"
           d="m 131.43796,128.32144 h 3.44182 v -14.62147 h 5.62751 v -3.03986 h -14.69684 v 3.03986 h 5.62751 z"
           id="path12-66-0-11-5-0-3-8-5-9-41-0-3-2-3-8-6-85-6-2" />
        <path
           id="path11-03-9-5-4-9-8-9-2-3-2-1-1-0-4-2-7-0-8-7"
           style="font-weight:600;font-size:25.1228px;line-height:3;font-family:Outfit;-inkscape-font-specification:'Outfit Semi-Bold';fill:#343d9e;fill-opacity:1;stroke-width:0.999667;stroke-linecap:round;stroke-linejoin:round;stroke-dasharray:none"
           d="m 116.21357,125.4072 c -3.34133,0 -5.62751,-2.41179 -5.62751,-5.95411 0,-3.49207 2.28618,-5.90386 5.62751,-5.90386 3.34133,0 5.65263,2.41179 5.65263,5.90386 0,3.54232 -2.28618,5.95411 -5.65263,5.95411 z m 0.0502,3.19059 c 5.12506,0 9.11958,-4.01965 9.11958,-9.11957 0,-5.12506 -4.01965,-9.09446 -9.16982,-9.09446 -5.15018,0 -9.11958,3.9694 -9.11958,9.06933 0,5.09993 4.01965,9.1447 9.16982,9.1447 z" />
      </g>
    </g>
  </g>
</svg>
