<?xml version="1.0" encoding="UTF-8"?>
<svg id="Layer_2" data-name="Layer 2" xmlns="http://www.w3.org/2000/svg" viewBox="0 0 152.4 61.09">
  <defs>
    <style>
      .cls-1 {
        fill: #2b3991;
      }
    </style>
  </defs>
  <g id="Content">
    <path class="cls-1" d="M24.32,16.94c-.53,6.16-1.92,10.68-4.78,16.13l-15.46-.04C1.72,26.94.26,22.87.05,16.52-.23,8.26.36,0,11.65,0c12.51,0,13.39,8.57,12.67,16.94ZM12.21,3.6c-5.98,0-7.55,3.41-7.55,10.11,0,7.98,3.6,14.87,7.75,14.87,3.71,0,7.42-7.12,7.42-15.79,0-5.58-1.52-9.19-7.62-9.19Z"/>
    <path class="cls-1" d="M31.42,19.61h-4.71s0-2.56,0-2.56h13.38v2.62h-4.96v13.36h-3.75s-.04-13.42.04-13.42Z"/>
    <polygon class="cls-1" points="42.34 33.03 42.34 17.13 47.2 17.13 52.48 29.07 57.47 17.13 62.55 17.13 62.53 33.03 59.32 33.03 59.35 20.4 54.57 33.03 50.21 33.03 45.62 20.57 45.62 33.03 42.34 33.03"/>
    <path class="cls-1" d="M65.53,33.03l5.49-15.9h4.19l5.86,15.9h-3.91s-.85-2.87-.85-2.87h-6.71l-1.01,2.87h-3.05ZM70.34,27.36h5.32l-2.66-6.66-2.66,6.66Z"/>
    <polygon class="cls-1" points="83.97 33.03 83.98 17.13 88.47 17.13 95.23 29.65 95.23 17.13 98.2 17.13 98.2 32.79 98.2 33.03 93.38 33.03 86.73 20.69 86.72 33.03 83.97 33.03"/>
    <g>
      <polygon class="cls-1" points="44.49 52.23 49.1 52.23 46.76 45.58 44.49 52.23"/>
      <path class="cls-1" d="M95.54,44.89h-2.99v5.24h2.99c2.86,0,2.92-5.24,0-5.24Z"/>
      <path class="cls-1" d="M129.42,44.89h-2.99v4.32h2.99c2.32,0,2.32-4.32,0-4.32Z"/>
      <path class="cls-1" d="M111.94,44.55c-3.39,0-5.22,2.85-5.22,5.58,0,2.53,1.65,5.57,5.22,5.57s5.49-2.27,5.49-5.4c0-3.45-2.49-5.75-5.49-5.75Z"/>
      <path class="cls-1" d="M31.06,44.89h-2.99v4.32h2.99c2.32,0,2.32-4.32,0-4.32Z"/>
      <path class="cls-1" d="M0,32.22v28.87h152.4v-28.87H0ZM22.26,37.79h-7.21v21.5h-5.42v-21.54H2.2v-4.73h20.07v4.78ZM34.58,59.28l-3.69-7.36h-2.76v7.36h-3.59v-17.53h8.24c4.07.02,6.38,6.52,1.01,9.34l4.15,8.19h-3.35ZM51.86,59.29l-1.81-3.9h-6.71l-1.28,3.9h-3.05l5.76-17.38h4.19l6.94,17.38h-4.04ZM72.19,58.95v.34h-4.51s-7.07-12.95-7.07-12.95v12.94h-3v-17.38h4.75l6.53,12.24v-12.24l3.3-.09v17.14ZM79.5,59.29c-3.27,0-5.36-2.43-5.36-2.43l1.85-2.31c2.72,2.31,4.95,1.61,4.95,1.61,0,0,1.83-.69,1.83-2.11,0-4.07-7.94-1.33-7.94-8.03,0-4.85,7.97-5.46,11.15-2.81l-.76,2.54c-1.06-.81-6.25-3.03-6.25.2,0,3.94,7.61,1.78,7.61,8.61,0,2.86-3.29,4.75-7.08,4.75ZM95.36,53.06h-2.76l-.05,6.22h-3.32l.05-17.53h6.2c8.34,0,7.81,11.31-.12,11.31ZM111.99,59.28c-5.69,0-8.84-4.86-8.84-8.9,0-4.34,3.43-9.24,8.84-9.24,4.8,0,9.01,4.01,9.01,9.52,0,4.98-3.51,8.63-9.01,8.63ZM132.93,59.28l-3.69-7.36h-2.76v7.36h-3.59v-17.53h8.24c4.07.02,6.38,6.52,1.01,9.34l4.15,8.19h-3.35ZM150.58,44.84h-5.01v14.44h-3.76s-.02-14.5.05-14.5h-4.9s0-2.91,0-2.91h13.62v2.96Z"/>
    </g>
  </g>
</svg>