<?xml version="1.0" encoding="UTF-8"?>
<svg id="Layer_2" data-name="Layer 2" xmlns="http://www.w3.org/2000/svg" viewBox="0 0 1080 1080">
  <defs>
    <style>
      .cls-1 {
        fill: none;
        stroke: #303d95;
        stroke-linecap: round;
        stroke-miterlimit: 10;
        stroke-width: 24px;
      }
    </style>
  </defs>
  <path class="cls-1" d="M500.44,696.9h221.01c16.96,0,30.71-13.75,30.71-30.71v-329.4c0-16.96-13.75-30.71-30.71-30.71H250.61c-16.96,0-30.71,13.75-30.71,30.71v27.1"/>
  <path class="cls-1" d="M219.9,591.44v74.75c0,16.96,13.75,30.71,30.71,30.71h35.17"/>
  <line class="cls-1" x1="92.11" y1="412.78" x2="252.16" y2="412.78"/>
  <line class="cls-1" x1="219.9" y1="489.09" x2="40" y2="489.09"/>
  <line class="cls-1" x1="252.16" y1="544.92" x2="129.95" y2="544.92"/>
  <path class="cls-1" d="M306.13,421.19v144.05c0,4.9,3.19,9.22,7.87,10.67l141.35,43.64c7.45,2.3,15.43,2.27,22.86-.09l156.97-49.74c4.64-1.47,7.79-5.78,7.79-10.64v-137.88c0-4.98-3.3-9.36-8.08-10.73l-151.86-43.63c-5.54-1.59-11.42-1.59-16.96,0l-151.86,43.63c-4.79,1.37-8.08,5.75-8.08,10.73Z"/>
  <polyline class="cls-1" points="555.51 508.32 555.51 435.82 401.87 385.28"/>
  <polyline class="cls-1" points="639.97 413.58 468.66 458.69 466.82 621.25"/>
  <line class="cls-1" x1="468.66" y1="458.69" x2="308.94" y2="413.58"/>
  <circle class="cls-1" cx="391.89" cy="712.13" r="61.79"/>
  <circle class="cls-1" cx="865.19" cy="712.13" r="61.79"/>
  <path class="cls-1" d="M752.16,380.53h154.47c10.09,0,19.55,4.96,25.28,13.27l102.66,148.83c3.54,5.13,5.43,11.21,5.43,17.44v106.13c0,16.96-13.75,30.71-30.71,30.71h-32.29"/>
</svg>