<?xml version="1.0" encoding="UTF-8"?>
<svg id="Layer_2" data-name="Layer 2" xmlns="http://www.w3.org/2000/svg" viewBox="0 0 1080 1080">
  <defs>
    <style>
      .cls-1, .cls-2 {
        fill: none;
        stroke: #303d95;
        stroke-miterlimit: 10;
        stroke-width: 24px;
      }

      .cls-2 {
        stroke-linecap: round;
      }
    </style>
  </defs>
  <circle class="cls-2" cx="368.78" cy="716.11" r="60.45"/>
  <path class="cls-2" d="M664.2,625.63H70.04c-16.59,0-30.04,13.45-30.04,30.04v15.52c0,16.59,13.45,30.04,30.04,30.04h30.65"/>
  <circle class="cls-2" cx="204.4" cy="716.11" r="60.45"/>
  <circle class="cls-2" cx="868.98" cy="716.11" r="60.45"/>
  <path class="cls-2" d="M475.78,701.22h252.59c16.59,0,30.04-13.45,30.04-30.04v-263.08c0-9.05,7.34-16.39,16.39-16.39h134.73c9.88,0,19.12,4.85,24.73,12.98l100.43,145.6c3.46,5.02,5.31,10.96,5.31,17.06v103.83c0,16.59-13.45,30.04-30.04,30.04h-41.57"/>
  <path class="cls-1" d="M292.99,581.52l91.31-45.42c25.02-10.98,59.81-6.32,83.71,10.97.75.55,1.48,1.13,2.19,1.73,43.56,36.61,107.85,46.74,157.41,24.53,33.57-15.05,61.29-43.84,76.06-78.98,15.83-37.68,15.65-78.67-.48-115.44-24.85-56.62-81.18-89.87-139.5-88.25-28.54.79-47.27,30.12-35.79,56.26l.08.17c6.53,14.88,21.4,24.37,37.65,23.97,26.65-.64,52.9,14.63,64.08,40.09,15.84,36.09-5.68,75.83-34.91,88.93-25.09,11.25-56.8,1.41-73.9-13.55l-1.91-1.57c-47.25-36.47-114.33-45.45-166.93-22.36l-91.31,45.42c-58.72,29.6-24.39,100.26,32.26,73.49Z"/>
</svg>