<?xml version="1.0" encoding="UTF-8"?>
<svg id="Layer_2" data-name="Layer 2" xmlns="http://www.w3.org/2000/svg" viewBox="0 0 1080 1080">
  <defs>
    <style>
      .cls-1 {
        fill: none;
        stroke: #303d95;
        stroke-linecap: round;
        stroke-miterlimit: 10;
        stroke-width: 24px;
      }
    </style>
  </defs>
  <path class="cls-1" d="M209.43,785.33l-103.16-4.97c-16.58-1.48-29.29-15.37-29.29-32.02v-95.95c0-14.68,4.05-29.11,11.86-41.55,24.57-39.1,89.72-109.5,217.39-46.05"/>
  <circle class="cls-1" cx="544.53" cy="338.99" r="118.3"/>
  <circle class="cls-1" cx="217.58" cy="404.84" r="82.53"/>
  <path class="cls-1" d="M540.91,839c52.67-.83,109.01-6.5,157.9-11.86,18.55-2.03,32.65-17.61,32.83-36.28l1.25-129.6c.11-11.35-2.05-22.61-6.41-33.09-18.99-45.58-52.6-71.69-66.35-80.85-47.06-31.36-85.38-32.14-118.43-32.14s-71.72.52-120.88,32.87c-15.39,10.13-48.7,35.51-67.28,80.12-4.36,10.48-6.52,21.74-6.41,33.09l1.25,129.6c.18,18.66,14.28,34.24,32.83,36.28,48.89,5.35,107.04,11.03,159.71,11.86Z"/>
  <path class="cls-1" d="M870.57,789.74l103.16-4.97c16.58-1.48,29.29-15.37,29.29-32.02v-95.95c0-14.68-4.05-29.11-11.86-41.55-24.57-39.1-89.72-109.5-217.39-46.05"/>
  <circle class="cls-1" cx="862.42" cy="409.25" r="82.53"/>
</svg>