<?xml version="1.0" encoding="UTF-8"?>
<svg id="Layer_2" data-name="Layer 2" xmlns="http://www.w3.org/2000/svg" viewBox="0 0 1080 1080">
  <defs>
    <style>
      .cls-1 {
        fill: none;
        stroke: #303d95;
        stroke-linecap: round;
        stroke-miterlimit: 10;
        stroke-width: 24px;
      }
    </style>
  </defs>
  <path class="cls-1" d="M363.87,205.94v300.83c0,8.1,5.28,15.25,13.02,17.64l233.73,72.15c12.32,3.8,25.51,3.75,37.8-.14l259.54-82.25c7.67-2.43,12.89-9.55,12.89-17.6V205.94c0-8.23-5.45-15.47-13.37-17.75l-251.1-72.14c-9.16-2.63-18.88-2.63-28.04,0l-251.1,72.14c-7.91,2.27-13.37,9.51-13.37,17.75Z"/>
  <polyline class="cls-1" points="776.22 350 776.22 230.12 522.17 146.56"/>
  <polyline class="cls-1" points="915.86 193.35 632.61 267.94 629.57 599.38"/>
  <line class="cls-1" x1="632.61" y1="267.94" x2="368.51" y2="193.35"/>
  <path class="cls-1" d="M40,782.24s186.24-139.05,278.03-143.42c188.18-8.96,200.49,71.86,311.54,58.08,124.16-15.41,106.36,94.56,25.09,97.5-86.42,3.12-141.01-36.06-226.55-2.73"/>
  <path class="cls-1" d="M138.76,965.92s103.79-66.05,188.08-66.05,132.63,26.1,234,41.52c109.94,16.72,448.1-195.23,474.28-251.61,23.3-50.16-41.52-78.63-94.35-45.92-52.84,32.71-159.14,100.64-159.14,100.64"/>
  <path class="cls-1" d="M765.58,701.31c5.03-3.15,109.14-76.95,109.14-76.95,0,0,61-32.79,89.31,9.4"/>
  <path class="cls-1" d="M260.26,307.12c-154.4,137.3-38.48,290.97-36.48,292.26"/>
  <path class="cls-1" d="M186.17,324.19l67.62-18.49c4.56-1.25,9.07,2.19,9.07,6.92v61.16"/>
</svg>