<?xml version="1.0" encoding="UTF-8"?>
<svg id="Layer_2" data-name="Layer 2" xmlns="http://www.w3.org/2000/svg" viewBox="0 0 1080 1080">
  <defs>
    <style>
      .cls-1 {
        fill: none;
        stroke: #303d95;
        stroke-linecap: round;
        stroke-miterlimit: 10;
        stroke-width: 24px;
      }
    </style>
  </defs>
  <polyline class="cls-1" points="500.5 760.5 104.85 760.5 51.35 760.5"/>
  <path class="cls-1" d="M104.85,760.5l.54-264.07c.01-6.89-5.57-12.49-12.46-12.49h-39.16c-13.22,0-18.82-16.84-8.23-24.75l303.09-226.45c5.44-4.06,12.89-4.13,18.4-.15l272.03,196.34"/>
  <path class="cls-1" d="M197.67,760.5v-203.4c0-8.46,6.86-15.31,15.31-15.31h95.27c8.46,0,15.31,6.86,15.31,15.31v203.4"/>
  <path class="cls-1" d="M601.44,729.17v-218.05c0-9.99-5.12-19.28-13.57-24.61l-49.05-30.97c-41.49-24.01-65.59,16.97-38.66,36.67l45.37,28.36"/>
  <line class="cls-1" x1="887.97" y1="806.25" x2="678.61" y2="806.25"/>
  <circle class="cls-1" cx="601.44" cy="806.25" r="44.09"/>
  <circle class="cls-1" cx="953.82" cy="823.55" r="26.8"/>
  <path class="cls-1" d="M872.66,755.92h-189.03c-8.46,0-15.31-6.86-15.31-15.31v-165.97c0-8.46,6.86-15.31,15.31-15.31,31.32,0,62.63,0,93.95,0s63.39,0,95.08,0c1.02,0,6.44.1,10.83,4.48,2.77,2.77,4.48,6.6,4.48,10.83v165.97c0,8.46-6.86,15.31-15.31,15.31Z"/>
  <line class="cls-1" x1="777.57" y1="559.33" x2="778.14" y2="633.43"/>
</svg>