<?xml version="1.0" encoding="UTF-8"?>
<svg id="Layer_2" data-name="Layer 2" xmlns="http://www.w3.org/2000/svg" viewBox="0 0 1080 1080">
  <defs>
    <style>
      .cls-1 {
        fill: none;
        stroke: #303d95;
        stroke-linecap: round;
        stroke-miterlimit: 10;
        stroke-width: 24px;
      }
    </style>
  </defs>
  <path class="cls-1" d="M739.13,168.16c-207.88-.34-484.27-.65-598.26-.16-29.07.13-52.57,23.73-52.57,52.8v484.63c0,29.16,23.64,52.8,52.8,52.8h801.87c29.16,0,52.8-23.64,52.8-52.8v-330.12"/>
  <line class="cls-1" x1="472.53" y1="912.25" x2="488.15" y2="758.24"/>
  <line class="cls-1" x1="319.02" y1="912.25" x2="770.72" y2="912.25"/>
  <line class="cls-1" x1="612.72" y1="912.25" x2="597.1" y2="758.24"/>
  <path class="cls-1" d="M385.27,635.26c5.49,11.6,14.7,27.95,22.55,37.94"/>
  <path class="cls-1" d="M389.71,490.98c-9.61,17.67-12.84,26.37-15.69,47.12"/>
  <path class="cls-1" d="M500.6,402.35c-17.19,2.68-35.58,11.53-49.58,21.21"/>
  <path class="cls-1" d="M633.43,423.8c-18.71-14.07-41.05-19.31-51.2-21.45"/>
  <path class="cls-1" d="M712.64,544.44c-1.02-13.36-6.45-26.49-14.76-46.08"/>
  <path class="cls-1" d="M676.56,672.82c7.54-9.65,14.06-20.12,19.4-31.27"/>
  <polyline class="cls-1" points="385.27 635.26 328.53 635.26 319.02 559.73 374.03 538.1"/>
  <polyline class="cls-1" points="389.71 490.98 358.08 448.67 408 397.27 451.02 423.57"/>
  <polyline class="cls-1" points="500.6 402.35 500.6 348.82 582.23 348.82 582.23 402.35"/>
  <polyline class="cls-1" points="633.43 423.8 683.09 397.27 730.98 450.71 697.88 498.37"/>
  <polyline class="cls-1" points="698.81 635.26 758.49 631.05 763.58 563.8 712.64 544.44"/>
</svg>