<?xml version="1.0" encoding="UTF-8"?>
<svg id="Layer_2" data-name="Layer 2" xmlns="http://www.w3.org/2000/svg" viewBox="0 0 1080 1080">
  <defs>
    <style>
      .cls-1 {
        fill: none;
        stroke: #303d95;
        stroke-linecap: round;
        stroke-miterlimit: 10;
        stroke-width: 24px;
      }
    </style>
  </defs>
  <path class="cls-1" d="M136.88,577.73l-13.11-15.84c-6.18-7.46-4.86-18.58,2.89-24.39l4.9-3.67c3.45-2.59,7.65-3.99,11.96-3.99h31.35c10.29,0,20.19,3.9,27.71,10.92l20.15,18.79"/>
  <path class="cls-1" d="M202.79,679.06c-2.79-8.88,5.38-17.33,14.36-14.87l113.65,31.05s25.81,8.15,0,25.81c-20.64,14.12-77.36,5.66-99.27,1.7-5.68-1.03-10.61-4.52-13.44-9.55-4.47-7.95-11.15-20.94-15.3-34.13Z"/>
  <path class="cls-1" d="M515.31,289.39c-15.47,30.13-46.18,49.47-82.37,49.47-51.52,0-93.28-41.76-93.28-93.28s41.76-93.28,93.28-93.28c39.56,0,72.23,21.85,85.79,56.6h169.79c14.03,0,27.36,6.08,36.58,16.66,3.72,4.26,7.71,8.74,11.22,12.63,5.56,6.17,5.32,15.62-.56,21.49l-18.93,18.93c-6.52,6.52-17.09,6.52-23.6,0l-1.95-1.95c-6.47-6.47-16.96-6.47-23.43,0l-.47.47c-5.65,5.65-14.81,5.65-20.46,0l-4.5-4.5c-6.49-6.49-17.02-6.49-23.52,0l-10.84,10.84c-3.8,3.8-8.95,5.93-14.32,5.93h-78.43Z"/>
  <path class="cls-1" d="M806.59,833.46v38.14c0,10.45,8.47,18.92,18.92,18.92h98.69c10.45,0,18.92-8.47,18.92-18.92v-206.19c0-7.87-3.12-15.41-8.69-20.97l-66.71-66.71-82.25-143.01c-4.58-7.97-13.07-12.88-22.26-12.88h-446.41c-9.19,0-17.68,4.91-22.26,12.88l-82.25,143.01-66.71,66.71c-5.56,5.56-8.69,13.11-8.69,20.97v206.19c0,10.45,8.47,18.92,18.92,18.92h98.69c10.45,0,18.92-8.47,18.92-18.92v-38.14"/>
  <line class="cls-1" x1="866.7" y1="833.46" x2="213.3" y2="833.46"/>
  <line class="cls-1" x1="681.27" y1="711.11" x2="398.73" y2="711.11"/>
  <line class="cls-1" x1="867.72" y1="577.73" x2="212.28" y2="577.73"/>
  <path class="cls-1" d="M943.12,577.73l13.11-15.84c6.18-7.46,4.86-18.58-2.89-24.39l-4.9-3.67c-3.45-2.59-7.65-3.99-11.96-3.99h-31.35c-10.29,0-20.19,3.9-27.71,10.92l-20.15,18.79"/>
  <path class="cls-1" d="M877.21,679.06c2.79-8.88-5.38-17.33-14.36-14.87l-113.65,31.05s-25.81,8.15,0,25.81c20.64,14.12,77.36,5.66,99.27,1.7,5.68-1.03,10.61-4.52,13.44-9.55,4.47-7.95,11.15-20.94,15.3-34.13Z"/>
</svg>